<svg width="117" height="27" viewBox="0 0 117 27" fill="none" xmlns="http://www.w3.org/2000/svg">
<path fill-rule="evenodd" clip-rule="evenodd" d="M69.8161 6.94384C69.2581 7.19114 68.9043 7.7506 68.9201 8.36076V8.38046C68.9165 8.78128 69.0802 9.16544 69.3719 9.44033C69.6637 9.71522 70.0569 9.85589 70.4567 9.82842C71.067 9.81624 71.6096 9.43718 71.8311 8.8684C72.0525 8.29961 71.909 7.65343 71.4676 7.23185C71.0262 6.81027 70.3741 6.69655 69.8161 6.94384ZM36.8388 7.62258H33.8838V19.5707H36.8388V7.62258ZM42.6207 10.341C39.8233 10.341 38.0109 12.1041 38.0109 15.0591C38.0109 18.0634 39.7839 19.7871 42.6207 19.7871C45.4575 19.7871 47.2305 18.0141 47.2305 15.0591C47.2305 12.1041 45.4181 10.341 42.6207 10.341ZM44.2657 15.059C44.2657 13.4338 43.6254 12.4783 42.6207 12.4783C41.616 12.4783 40.9856 13.4633 40.9856 15.059C40.9856 16.6547 41.6062 17.62 42.6207 17.62C43.6353 17.62 44.2657 16.7138 44.2657 15.0689V15.059ZM51.1806 20.1519H48.3438V20.1618C48.5113 21.7969 50.1365 22.969 52.7468 22.969C55.5541 22.969 57.4551 21.6294 57.4551 19.4723V10.5087H54.5001V12.1537C54.0446 11.065 52.9607 10.3739 51.7815 10.4201C49.516 10.4201 48.1567 12.2029 48.1567 15.0299C48.1567 17.8569 49.5849 19.5018 51.7421 19.5018C52.8844 19.5639 53.9494 18.9241 54.4312 17.8864H54.4902V19.5412C54.4902 20.4277 53.8992 21.0384 52.7763 21.0384C52.1069 21.1284 51.4579 20.7679 51.1806 20.1519ZM54.5001 15.0496C54.5001 13.6115 53.8401 12.7053 52.796 12.7053C51.7519 12.7053 51.1117 13.6017 51.1117 15.0496C51.1117 16.4976 51.7421 17.3152 52.796 17.3152C53.85 17.3152 54.5001 16.5173 54.5001 15.0595V15.0496ZM63.1778 10.3313C60.3804 10.3313 58.568 12.0945 58.568 15.0495V15.0593C58.568 18.0636 60.3311 19.7775 63.1778 19.7775C66.0244 19.7775 67.7974 18.0045 67.7974 15.0495C67.7974 12.0945 65.9752 10.3313 63.1778 10.3313ZM64.8226 15.0494C64.8226 13.4242 64.1823 12.4687 63.1776 12.4687C62.1729 12.4687 61.5918 13.4636 61.5918 15.0691C61.5918 16.6747 62.2123 17.6301 63.217 17.6301C64.2217 17.6301 64.8226 16.7141 64.8226 15.0691V15.0494ZM68.9201 10.5276H71.8751V19.5699H68.9201V10.5276ZM79.0463 19.6886C81.2921 19.6886 82.6022 18.0043 82.6022 15.0492L82.6416 15.0689C82.6416 12.1139 81.2921 10.4197 79.0266 10.3803C77.8379 10.3273 76.7432 11.0243 76.2883 12.1238H76.2292V10.5084H73.2742V22.4663H76.2292V18.0141H76.2883C76.7653 19.0956 77.8667 19.7643 79.0463 19.6886ZM79.6468 15.0499C79.6468 13.6118 78.9869 12.6957 77.9526 12.6957C76.9184 12.6957 76.2584 13.6216 76.2486 15.0499C76.2387 16.4781 76.9184 17.3942 77.9526 17.3942C78.9869 17.3942 79.6468 16.4978 79.6468 15.0696V15.0499ZM91.6835 13.3457C91.6145 11.484 90.1272 10.3217 87.6745 10.3217V10.3414C85.2317 10.3414 83.6458 11.4939 83.6261 13.2669C83.6261 14.6459 84.552 15.5816 86.3152 15.9461L88.0193 16.3105C88.7285 16.4583 89.0043 16.5568 89.0043 17.0296C89.0043 17.5024 88.6103 17.788 87.7435 17.788C86.8767 17.788 86.3447 17.394 86.2561 16.7242H83.4094C83.5375 18.5662 85.1824 19.7679 87.6942 19.7679C90.206 19.7679 91.91 18.5662 91.91 16.6947C91.91 15.3255 91.1417 14.5966 89.3392 14.2125L87.448 13.8283C86.788 13.6904 86.463 13.5427 86.463 13.0797C86.463 12.6168 86.8274 12.3016 87.645 12.3016C88.4625 12.3016 88.9944 12.7054 88.9944 13.3457H91.6835ZM101.77 19.5506H98.9234V17.8663H98.8643C98.542 19.0315 97.4513 19.8146 96.2442 19.7476C95.3359 19.7993 94.4497 19.4546 93.8149 18.8028C93.1801 18.151 92.859 17.2561 92.9346 16.3494V10.5083H95.8896V15.6697C95.8896 16.7434 96.4412 17.3147 97.3573 17.3147C97.7919 17.3156 98.2057 17.1288 98.4925 16.8024C98.7794 16.4759 98.9113 16.0415 98.8545 15.6106V10.5083H101.81L101.77 19.5506ZM106.055 10.5083H103.198L103.149 19.5703H106.104V14.2415C106.059 13.8667 106.176 13.4906 106.427 13.2082C106.677 12.9258 107.037 12.7641 107.414 12.764C108.222 12.764 108.665 13.2565 108.665 14.1627V19.5703H111.472V14.2218C111.424 13.8516 111.538 13.4786 111.785 13.199C112.033 12.9195 112.389 12.7608 112.763 12.764C113.59 12.764 114.033 13.2171 114.033 14.2021V19.5703H116.988V13.4141C117.047 12.6031 116.759 11.8051 116.196 11.2189C115.632 10.6328 114.846 10.3136 114.033 10.3409C112.766 10.2864 111.623 11.0971 111.255 12.3109H111.196C111 11.1002 109.907 10.243 108.685 10.3409C107.493 10.3188 106.436 11.1041 106.114 12.2518H106.055V10.5083Z" fill="#696871"/>
<path fill-rule="evenodd" clip-rule="evenodd" d="M23.6493 4.99147C24.4546 5.94882 25.118 7.01699 25.6193 8.16317C26.3494 9.83434 26.7251 11.6388 26.7225 13.4625C26.7171 20.8238 20.7567 26.793 13.3954 26.8092C11.6826 26.8083 9.98636 26.4737 8.40146 25.8242C7.27102 25.3751 6.20983 24.7682 5.24945 24.0217C1.16464 20.9087 -0.767897 15.7254 0.281811 10.698C1.33152 5.6706 5.17666 1.69372 10.1659 0.475315C15.1551 -0.743095 20.4005 1.0138 23.6493 4.99147ZM17.838 3.80066C16.4434 3.15168 14.9239 2.8155 13.3858 2.81566L13.3956 2.79596C9.74818 2.79324 6.35366 4.65937 4.40153 7.74042C2.44939 10.8215 2.21185 14.6878 3.77214 17.9847C4.21706 17.5173 4.49123 16.9134 4.55029 16.2708C4.90855 13.7959 6.85265 11.8518 9.32755 11.4935C10.7239 11.3669 11.8391 10.2765 11.9969 8.88327C12.3552 6.40837 14.2993 4.46427 16.7742 4.10602C17.1404 4.05022 17.4979 3.9476 17.838 3.80066ZM5.23955 20.3588C5.27895 20.3227 5.31834 20.2877 5.35774 20.2527C5.43654 20.1826 5.51535 20.1126 5.59415 20.0338C6.47046 19.1842 7.03296 18.0627 7.18986 16.8522C7.25347 16.1718 7.55726 15.5363 8.04681 15.0595C8.51788 14.5692 9.15195 14.2679 9.82966 14.2124C12.3046 13.8542 14.2487 11.9101 14.6069 9.43518C14.6495 8.72353 14.9549 8.05306 15.4639 7.55383C15.9466 7.073 16.5867 6.78267 17.2664 6.73627C18.3735 6.58396 19.406 6.0918 20.2214 5.32772C21.1499 6.09806 21.9366 7.02478 22.546 8.06603C22.5086 8.11661 22.4657 8.16286 22.418 8.20393C21.9478 8.69859 21.3146 9.00647 20.6351 9.07073C18.1571 9.42281 16.2099 11.37 15.8579 13.848C15.7147 15.246 14.6068 16.3499 13.2082 16.4878C10.7264 16.8433 8.77217 18.7855 8.40141 21.265C8.3484 21.7464 8.18308 22.2087 7.91876 22.6145C6.90814 22.0145 6.00302 21.2524 5.23955 20.3588ZM10.4305 23.7456C11.3913 24.0211 12.386 24.1603 13.3855 24.1593V24.11C16.6844 24.0972 19.7914 22.5575 21.7995 19.9403C23.8077 17.3231 24.4908 13.9234 23.6493 10.7337C22.9014 11.2624 22.0358 11.6006 21.1276 11.7187C19.7329 11.861 18.6301 12.9638 18.4878 14.3585C18.1285 16.8365 16.1795 18.7815 13.7007 19.1357C12.306 19.2781 11.2032 20.3808 11.0609 21.7756C10.9728 22.4652 10.7592 23.1329 10.4305 23.7456Z" fill="#696871"/>
</svg>
