<svg width="122" height="29" viewBox="0 0 122 29" fill="none" xmlns="http://www.w3.org/2000/svg">
<path d="M26.2805 10.2372C26.6351 10.2372 26.7533 10.3652 26.7533 10.71V18.5112H30.7623C31.107 18.5112 31.2351 18.6392 31.2351 18.984V19.6735C31.2351 20.0182 31.107 20.1463 30.7623 20.1463H25.4827C25.1379 20.1463 25 20.0182 25 19.6735V10.71C25 10.3652 25.1379 10.2372 25.4827 10.2372H26.2805Z" fill="#696871"/>
<path fill-rule="evenodd" clip-rule="evenodd" d="M38.6715 10.0314C36.1695 10.0314 34.7314 11.4005 34.7314 13.6759V16.7097C34.7314 18.985 36.1794 20.3542 38.6715 20.3542C41.1635 20.3542 42.6115 18.985 42.6115 16.7097V13.6759C42.6115 11.4005 41.1734 10.0314 38.6715 10.0314ZM38.721 11.7043C40.1591 11.7043 40.9569 12.3938 40.9569 13.6743V16.7278C40.9569 17.9887 40.1591 18.6979 38.721 18.6979C37.2829 18.6979 36.4949 18.0182 36.4949 16.7278V13.6743C36.4949 12.4037 37.2829 11.7043 38.721 11.7043Z" fill="#696871"/>
<path d="M54.3433 14.719C54.7274 14.719 54.8161 14.847 54.8161 15.1918V17.0633C54.8372 17.9561 54.4534 18.8106 53.772 19.3879C52.9364 20.0533 51.8828 20.3834 50.817 20.3138C48.2658 20.3138 46.877 18.9446 46.877 16.6693V13.6158C46.877 11.37 48.3151 9.99097 50.817 9.99097C52.787 9.99097 54.0675 10.7691 54.6092 12.3254C54.6707 12.444 54.6726 12.5846 54.6144 12.7048C54.5563 12.825 54.4448 12.9107 54.3137 12.9361L53.5454 13.2021C53.2105 13.3203 53.0726 13.2513 52.9544 12.9066C52.6187 12.041 51.7385 11.5137 50.817 11.6261C49.369 11.6261 48.581 12.3254 48.581 13.5961V16.7284C48.581 18.0187 49.3789 18.6984 50.817 18.6984C52.2551 18.6984 53.1416 18.0384 53.1416 17.0731V16.3442H51.0041C50.6495 16.3442 50.5215 16.2063 50.5215 15.8616V15.1918C50.5215 14.847 50.6495 14.719 51.0041 14.719H54.3433Z" fill="#696871"/>
<path fill-rule="evenodd" clip-rule="evenodd" d="M62.8238 10.0314C60.3219 10.0314 58.8838 11.4005 58.8838 13.6759V16.7097C58.8838 18.985 60.3317 20.3542 62.8238 20.3542C65.3158 20.3542 66.7638 18.985 66.7638 16.7097V13.6759C66.7638 11.4005 65.3257 10.0314 62.8238 10.0314ZM62.873 11.7043C64.3012 11.7043 65.0991 12.3938 65.0991 13.6743V16.7278C65.0991 17.9887 64.3111 18.6979 62.873 18.6979C61.4349 18.6979 60.637 18.0182 60.637 16.7278V13.6743C60.637 12.4037 61.4447 11.7043 62.873 11.7043Z" fill="#696871"/>
<path d="M71.4033 10.5228C71.4033 10.3061 71.4723 10.2372 71.689 10.2372H72.1421C72.3588 10.2372 72.408 10.3061 72.408 10.5228V19.8606C72.408 20.0773 72.408 20.1463 72.1421 20.1463H71.689C71.4723 20.1463 71.4033 20.0773 71.4033 19.8606V10.5228Z" fill="#696871"/>
<path fill-rule="evenodd" clip-rule="evenodd" d="M84.4745 13.3301C84.4745 11.6219 83.0897 10.2372 81.3816 10.2372H77.7075C77.5007 10.2372 77.4219 10.3061 77.4219 10.5228V19.8606C77.4219 20.0773 77.5007 20.1463 77.7075 20.1463H78.1705C78.3773 20.1463 78.4266 20.0773 78.4266 19.8606V16.423H81.3816C83.0897 16.423 84.4745 15.0383 84.4745 13.3301ZM83.1528 14.3739C82.7692 15.0383 82.0603 15.4475 81.2932 15.4475H78.3382V11.1529H81.2932C82.0603 11.1529 82.7692 11.5622 83.1528 12.2266C83.5364 12.891 83.5364 13.7095 83.1528 14.3739Z" fill="#696871"/>
<path d="M92.1672 10.0414C93.7288 9.86901 95.2185 10.742 95.8314 12.1887C95.9102 12.3463 95.8314 12.4743 95.6738 12.5531L95.2404 12.7501C95.0631 12.8191 94.9941 12.8092 94.8858 12.6221C94.4279 11.5492 93.3284 10.8959 92.1672 11.0067C90.5025 11.0067 89.5963 11.6666 89.5963 12.8486C89.5764 13.5956 90.1102 14.2429 90.8473 14.3655C91.377 14.5383 91.9263 14.6442 92.4824 14.6807C93.1555 14.7166 93.8194 14.8527 94.4524 15.0846C95.4525 15.401 96.0938 16.3753 95.989 17.419C95.989 19.261 94.6494 20.374 92.1869 20.374C90.5225 20.5644 88.951 19.5674 88.4143 17.9805C88.3791 17.9094 88.3775 17.8263 88.4099 17.7539C88.4423 17.6815 88.5053 17.6273 88.5818 17.6062L89.0152 17.4486C89.0842 17.4204 89.1619 17.4224 89.2293 17.4543C89.2967 17.4861 89.3477 17.5448 89.3698 17.616C89.8219 18.7579 90.9617 19.4753 92.1869 19.389C94.0485 19.389 94.9646 18.7389 94.9646 17.419C95.0004 16.7025 94.513 16.0651 93.8121 15.912C93.3025 15.7599 92.7769 15.6674 92.246 15.6362L91.1822 15.4983C90.8492 15.4276 90.5204 15.3388 90.1972 15.2323C89.8779 15.1359 89.5802 14.9787 89.3205 14.7694C88.7916 14.2903 88.5029 13.601 88.5325 12.888C88.6015 11.1643 89.8918 10.0414 92.1672 10.0414Z" fill="#696871"/>
<path d="M101.298 16.7776C101.385 18.2236 102.583 19.3517 104.031 19.3517C105.48 19.3517 106.678 18.2236 106.765 16.7776V10.5228C106.765 10.3061 106.833 10.2372 107.05 10.2372H107.503C107.72 10.2372 107.789 10.3061 107.789 10.5228V16.7677C107.789 19.0037 106.469 20.3531 104.036 20.3531C101.603 20.3531 100.283 19.0037 100.283 16.7677V10.5228C100.283 10.3061 100.352 10.2372 100.559 10.2372H101.022C101.229 10.2372 101.298 10.3061 101.298 10.5228V16.7776Z" fill="#696871"/>
<path d="M121.382 10.2389C121.599 10.2389 121.668 10.3078 121.668 10.5245V19.8624C121.668 20.0791 121.599 20.148 121.382 20.148H120.968C120.762 20.148 120.693 20.0791 120.693 19.8624V14.1789C120.692 13.3519 120.748 12.5259 120.86 11.7065H120.801C120.493 12.4558 120.135 13.1832 119.727 13.8834L117.61 17.6166C117.557 17.7491 117.427 17.8353 117.285 17.8333H117.009C116.864 17.8339 116.733 17.7489 116.674 17.6166L114.527 13.844C114.145 13.1538 113.816 12.436 113.542 11.6967H113.482C113.583 12.5236 113.636 13.3557 113.64 14.1887V19.8624C113.64 20.0791 113.571 20.148 113.354 20.148H112.97C112.754 20.148 112.685 20.0791 112.685 19.8624V10.5245C112.685 10.3078 112.754 10.2389 112.97 10.2389H113.325C113.491 10.2234 113.649 10.3142 113.719 10.4654L117.166 16.5922L120.594 10.5245C120.702 10.3177 120.762 10.2881 120.978 10.2881L121.382 10.2389Z" fill="#696871"/>
<path fill-rule="evenodd" clip-rule="evenodd" d="M2.22671 1.35245V21.3578C2.22671 21.6034 2.12916 21.8389 1.95552 22.0125C1.78188 22.1862 1.54637 22.2837 1.3008 22.2837H1.0841C0.572743 22.2837 0.158203 21.8692 0.158203 21.3578V1.35245C0.163602 0.844942 0.576565 0.436373 1.0841 0.436401H1.3008C1.80834 0.436373 2.22131 0.844942 2.22671 1.35245ZM13.5838 14.0353C13.7793 13.8491 14.0427 13.7513 14.3123 13.7648L14.2631 13.7845C14.5497 13.7553 14.8348 13.853 15.0432 14.0519C15.2516 14.2509 15.3625 14.5311 15.3466 14.8188V20.2363C15.3466 20.8075 14.8835 21.2705 14.3123 21.2705C13.7411 21.2705 13.2781 20.8075 13.2781 20.2363V14.7498C13.2777 14.4798 13.3882 14.2215 13.5838 14.0353ZM16.5385 16.8862C16.5385 16.3422 16.9795 15.9012 17.5235 15.9012C17.8085 15.8751 18.0908 15.9741 18.2969 16.1727C18.5031 16.3713 18.6126 16.6497 18.5971 16.9355V18.1273C18.5971 18.6958 18.1363 19.1567 17.5678 19.1567C16.9993 19.1567 16.5385 18.6958 16.5385 18.1273V16.8862ZM8.75722 25.081V17.9594C8.4492 18.1936 8.07032 18.3152 7.68357 18.3042C7.3288 18.2954 6.98516 18.1786 6.69857 17.9693V25.081C6.69857 25.6495 7.15941 26.1103 7.72789 26.1103C8.29637 26.1103 8.75722 25.6495 8.75722 25.081ZM4.46259 20.6587C4.10816 20.6481 3.76505 20.5315 3.47759 20.3238V27.4651C3.47759 28.0363 3.94064 28.4993 4.51184 28.4993C5.08304 28.4993 5.54609 28.0363 5.54609 27.4651V20.3731C5.22444 20.581 4.84493 20.681 4.46259 20.6587ZM11.0423 15.8722C10.6713 15.8697 10.3101 15.7528 10.008 15.5373V22.6983C10.008 23.2695 10.4711 23.7326 11.0423 23.7326C11.6135 23.7326 12.0765 23.2695 12.0765 22.6983V15.5472C11.764 15.78 11.3826 15.9013 10.993 15.8919L11.0423 15.8722ZM4.57065 19.9007H4.35395C3.84259 19.9007 3.42805 19.4862 3.42805 18.9748V3.73687C3.43345 3.22936 3.84641 2.82079 4.35395 2.82082H4.57065C5.07819 2.82079 5.49116 3.22936 5.49656 3.73687V18.9945C5.49656 19.5059 5.08202 19.9204 4.57065 19.9204V19.9007ZM7.60457 17.5571H7.83112C8.33704 17.5571 8.74717 17.1469 8.74717 16.641V6.10149C8.7472 5.59395 8.33863 5.18099 7.83112 5.17559H7.60457C7.3599 5.17558 7.12539 5.27344 6.95332 5.44737C6.78124 5.6213 6.68589 5.85684 6.68852 6.10149V16.641C6.68852 17.1469 7.09865 17.5571 7.60457 17.5571ZM11.0917 15.1435H10.8848C10.3773 15.1435 9.96434 14.735 9.95894 14.2274V8.55384C9.94259 8.29821 10.0329 8.04722 10.2083 7.86058C10.3838 7.67394 10.6287 7.56832 10.8848 7.56884H11.1015C11.6129 7.56884 12.0274 7.98338 12.0274 8.49474V14.2077C12.0301 14.455 11.9337 14.6931 11.7598 14.8688C11.5858 15.0446 11.3488 15.1435 11.1015 15.1435H11.0917ZM14.1448 13.0254H14.3615H14.3714C14.8789 13.02 15.2874 12.6071 15.2874 12.0995V10.6319C15.282 10.1244 14.8691 9.7158 14.3615 9.71583H14.1448C13.6373 9.7158 13.2243 10.1244 13.2189 10.6319V12.0995C13.2189 12.6109 13.6334 13.0254 14.1448 13.0254Z" fill="#696871"/>
</svg>
