<svg width="99" height="47" viewBox="0 0 99 47" fill="none" xmlns="http://www.w3.org/2000/svg">
<path d="M0.0703125 28.1802H3.02532V42.6695H0.0703125V28.1802Z" fill="#696871"/>
<path fill-rule="evenodd" clip-rule="evenodd" d="M7.97969 32.8392C6.01451 33.6564 4.73551 35.5774 4.73949 37.7057C4.72616 39.1039 5.27637 40.4485 6.26599 41.4363C7.25561 42.424 8.60127 42.9717 9.9994 42.9558C12.1277 42.9558 14.0463 41.6732 14.8599 39.7064C15.6734 37.7397 15.2216 35.4766 13.7152 33.9731C12.2089 32.4695 9.94486 32.0219 7.97969 32.8392ZM9.96112 35.4798C11.2152 35.4583 12.2523 36.4517 12.2847 37.7056C12.318 38.3266 12.0899 38.9332 11.6559 39.3785C11.2218 39.8239 10.6212 40.0673 9.99951 40.0499C8.74521 40.0495 7.72568 39.0381 7.71515 37.7839C7.70461 36.5296 8.70701 35.5013 9.96112 35.4798Z" fill="#696871"/>
<path fill-rule="evenodd" clip-rule="evenodd" d="M27.1378 42.1785V32.7421L24.2321 32.7717V33.7567C23.5245 32.8937 22.451 32.4154 21.3362 32.4663C18.5509 32.4663 16.293 34.7243 16.293 37.5095C16.293 40.2948 18.5509 42.5528 21.3362 42.5528C22.4519 42.6085 23.5274 42.1293 24.2321 41.2624V42.1785C24.2893 42.7872 24.0606 43.388 23.6131 43.8047C23.1656 44.2213 22.55 44.4066 21.9469 44.3061C21.0216 44.3826 20.1432 43.8868 19.7306 43.0551L17.1893 44.5228C18.1827 46.1396 19.9954 47.0669 21.8878 46.9262C24.5276 46.9262 27.1378 45.5176 27.1378 42.1785ZM22.8188 35.2202C23.713 35.6234 24.2724 36.5296 24.2322 37.5096C24.2505 38.1438 23.9997 38.7561 23.5418 39.1952C23.0839 39.6343 22.4616 39.8593 21.8288 39.8145C20.8479 39.8137 19.966 39.2169 19.6005 38.3067C19.235 37.3964 19.4593 36.3554 20.1673 35.6765C20.8752 34.9976 21.9247 34.817 22.8188 35.2202Z" fill="#696871"/>
<path fill-rule="evenodd" clip-rule="evenodd" d="M32.0822 32.8392C30.1171 33.6564 28.838 35.5774 28.842 37.7057C28.8287 39.1039 29.3789 40.4485 30.3685 41.4363C31.3581 42.424 32.7038 42.9717 34.1019 42.9558C36.2303 42.9558 38.1488 41.6732 38.9624 39.7064C39.776 37.7397 39.3241 35.4766 37.8178 33.9731C36.3114 32.4695 34.0474 32.0219 32.0822 32.8392ZM34.0633 35.4798C35.3175 35.4583 36.3545 36.4517 36.3869 37.7056H36.3672C36.4002 38.3231 36.1748 38.9265 35.7451 39.3712C35.3153 39.8158 34.72 40.0617 34.1017 40.0499C32.8474 40.0495 31.8279 39.0381 31.8174 37.7839C31.8068 36.5296 32.8092 35.5013 34.0633 35.4798Z" fill="#696871"/>
<path fill-rule="evenodd" clip-rule="evenodd" d="M42.5232 28.2899C41.5331 28.2899 40.7305 29.0925 40.7305 30.0826C40.7359 31.0705 41.5353 31.8699 42.5232 31.8753C43.5133 31.8753 44.3159 31.0727 44.3159 30.0826C44.3159 29.0925 43.5133 28.2899 42.5232 28.2899ZM43.9908 32.7425H41.0358V42.6713H43.9908V32.7425Z" fill="#696871"/>
<path fill-rule="evenodd" clip-rule="evenodd" d="M55.5989 41.3161C56.4883 40.3305 56.9478 39.0308 56.8754 37.7052C56.9451 36.3813 56.4844 35.0842 55.5952 34.1008C54.7061 33.1174 53.4618 32.5287 52.1375 32.465C51.0218 32.4115 49.9396 32.8552 49.1825 33.6766V32.7408H46.2275V46.6688H49.1825V41.7438C49.9396 42.5652 51.0218 43.0089 52.1375 42.9553C53.4636 42.8917 54.7095 42.3017 55.5989 41.3161ZM51.5374 35.4002C52.8274 35.3893 53.8879 36.4146 53.9206 37.7043H53.9009C53.9477 38.3567 53.7103 38.9974 53.2497 39.4618C52.7891 39.9262 52.1502 40.1689 51.4975 40.1274C50.2079 40.0947 49.1825 39.0342 49.1934 37.7442C49.2043 36.4542 50.2474 35.4111 51.5374 35.4002Z" fill="#696871"/>
<path d="M66.0749 39.6963C66.0749 41.9815 64.1049 42.9567 61.9379 42.9567C60.1669 43.1135 58.4785 42.1776 57.6729 40.5927L60.2536 39.125C60.4694 39.8633 61.1706 40.3513 61.9379 40.2972C62.657 40.2972 63.0116 40.0706 63.0116 39.6766C63.0116 38.5833 58.0866 39.1644 58.0866 35.7366C58.0866 33.5696 59.9187 32.4763 62.0266 32.4763C63.6106 32.4281 65.0962 33.2426 65.9075 34.6039L63.3169 35.9632C63.0831 35.4317 62.5579 35.088 61.9773 35.0865C61.4651 35.0865 61.1499 35.2835 61.1499 35.648C61.1893 36.7807 66.0749 36.0223 66.0749 39.6963Z" fill="#696871"/>
<path d="M76.9496 32.7416V42.6704H73.9946V41.7445C73.2973 42.579 72.2428 43.0293 71.1578 42.956C69.1878 42.956 67.4443 41.5278 67.4443 38.8387V32.7416H70.3993V38.4053C70.3467 38.8941 70.5168 39.3806 70.8625 39.7302C71.2082 40.0797 71.6929 40.2551 72.1822 40.2079C73.2657 40.2079 74.0241 39.5775 74.0241 38.1689V32.7416H76.9496Z" fill="#696871"/>
<path d="M94.0293 36.582V42.6693H91.0743V36.8381C91.0743 35.8531 90.5917 35.203 89.6461 35.203C88.7005 35.203 88.0898 35.9023 88.0898 37.0745V42.6693H85.1348V36.8381C85.1348 35.8531 84.662 35.203 83.7065 35.203C82.7511 35.203 82.1601 35.9023 82.1601 37.0745V42.6693H79.2051V32.7405H82.1601V33.6565C82.7876 32.8345 83.7885 32.386 84.8196 32.4647C85.8563 32.4143 86.8434 32.9116 87.42 33.7747C88.0901 32.873 89.1761 32.3783 90.2962 32.4647C92.542 32.4647 94.0293 34.0998 94.0293 36.582Z" fill="#696871"/>
<path d="M96.5511 32.6815C97.7697 32.6815 98.7575 31.6936 98.7575 30.4751C98.7575 29.2565 97.7697 28.2687 96.5511 28.2687C95.3326 28.2687 94.3447 29.2565 94.3447 30.4751C94.3447 31.6936 95.3326 32.6815 96.5511 32.6815Z" fill="#696871"/>
<path d="M33.5114 20.6653C39.2179 20.6653 43.844 16.0392 43.844 10.3327C43.844 4.62609 39.2179 0 33.5114 0C27.8048 0 23.1787 4.62609 23.1787 10.3327C23.1787 16.0392 27.8048 20.6653 33.5114 20.6653Z" fill="#696871"/>
<path d="M56.609 20.6653C62.3156 20.6653 66.9417 16.0392 66.9417 10.3327C66.9417 4.62609 62.3156 0 56.609 0C50.9025 0 46.2764 4.62609 46.2764 10.3327C46.2764 16.0392 50.9025 20.6653 56.609 20.6653Z" fill="#696871"/>
<rect x="0.0908203" y="0.00012207" width="20.6555" height="20.6555" fill="#696871"/>
</svg>
