<svg width="126" height="31" viewBox="0 0 126 31" fill="none" xmlns="http://www.w3.org/2000/svg">
<path fill-rule="evenodd" clip-rule="evenodd" d="M75.0156 9.07621C74.4147 9.34811 74.0395 9.95797 74.0676 10.6169L74.0873 10.6267C74.0924 11.043 74.2641 11.4398 74.564 11.7286C74.8638 12.0173 75.2669 12.1739 75.683 12.1633C76.3425 12.1627 76.9355 11.7613 77.1809 11.1491C77.4263 10.537 77.275 9.83711 76.7986 9.38104C76.3222 8.92497 75.6164 8.80431 75.0156 9.07621ZM39.5632 9.80976H36.4014V22.6148H39.5632V9.80976ZM45.7493 12.7244C42.7943 12.7244 40.8243 14.6254 40.8243 17.7971C40.8243 21.0378 42.7253 22.8896 45.7493 22.8896C48.7732 22.8896 50.6743 20.9688 50.6743 17.7971C50.6743 14.6254 48.7043 12.7244 45.7493 12.7244ZM47.542 17.797C47.542 16.0535 46.8623 15.0291 45.7788 15.0291C44.6953 15.0291 44.0255 16.0141 44.0255 17.797C44.0255 19.5798 44.6953 20.555 45.7788 20.555C46.8623 20.555 47.5617 19.5798 47.5617 17.8068L47.542 17.797ZM54.9884 23.2746H51.9349L51.9546 23.2845C52.1319 25.0476 53.8852 26.2986 56.6235 26.3084C59.6376 26.3084 61.6864 24.8605 61.6864 22.5457V12.9518H58.5541V14.5404C58.0193 13.4697 56.8963 12.8083 55.6878 12.873C53.2154 12.873 51.7478 14.7642 51.7478 17.798C51.7478 20.8318 53.2844 22.595 55.5991 22.595C56.8381 22.6858 58.0057 22.0096 58.5443 20.8919V22.6442C58.5443 23.6095 57.9139 24.2596 56.7023 24.2596C55.9748 24.3529 55.2741 23.9502 54.9884 23.2746ZM58.5541 17.797C58.5541 16.2505 57.8449 15.2754 56.722 15.2754C55.5991 15.2754 54.9096 16.2604 54.9096 17.797C54.9096 19.3336 55.5892 20.2398 56.722 20.2398C57.8547 20.2398 58.5541 19.4025 58.5541 17.797ZM67.8627 12.7244C64.9077 12.7244 62.9377 14.6254 62.9377 17.7971H62.9574C62.9574 21.0378 64.8486 22.8896 67.8627 22.8896C70.8768 22.8896 72.7877 20.9688 72.7877 17.7971C72.7877 14.6254 70.8177 12.7244 67.8627 12.7244ZM69.6554 17.797C69.6554 16.0535 68.9659 15.0291 67.8923 15.0291C66.8186 15.0291 66.139 16.0141 66.139 17.797C66.139 19.5798 66.8088 20.555 67.8923 20.555C68.9758 20.555 69.6751 19.5798 69.6751 17.8068L69.6554 17.797ZM74.0681 12.9418H77.2693V22.6539H74.1173L74.0681 12.9418ZM84.9516 22.792C87.3649 22.792 88.7833 20.9599 88.7833 17.798L88.8424 17.8079C88.8424 14.6362 87.4141 12.8139 84.9319 12.8336C83.651 12.7727 82.4693 13.5211 81.9769 14.7051H81.9178V12.9715H78.7757V25.7766H81.9375V20.9895H81.9966C82.5063 22.1504 83.6861 22.8701 84.9516 22.792ZM85.5631 17.7972C85.5631 16.2606 84.844 15.2657 83.731 15.2657C82.6179 15.2657 81.9186 16.2507 81.9087 17.7972C81.8989 19.3437 82.6179 20.3188 83.731 20.3188C84.844 20.3188 85.6222 19.4028 85.6222 17.807L85.5631 17.7972ZM98.4959 15.9751C98.4762 13.9657 96.8312 12.7147 94.1816 12.7147L94.2407 12.7246C91.5713 12.7246 89.9165 13.9558 89.8574 15.8865C89.8574 17.3738 90.8523 18.3687 92.7533 18.7725L94.5854 19.1567C95.3439 19.3143 95.6394 19.4029 95.6394 19.925C95.6394 20.447 95.206 20.7425 94.2801 20.7425C93.3542 20.7425 92.7829 20.319 92.6942 19.5999H89.6309C89.7589 21.5798 91.5221 22.88 94.2308 22.88C96.9396 22.88 98.7618 21.5404 98.7618 19.5704C98.7618 18.1027 97.9738 17.3147 96.0038 16.901L93.9747 16.4873C93.2458 16.3396 92.8814 16.182 92.8814 15.6796C92.8814 15.1773 93.2951 14.8424 94.1619 14.8424C95.0287 14.8424 95.6098 15.2758 95.6098 15.9751H98.4959ZM109.351 22.6438H106.287V20.8215H106.228C105.875 22.0736 104.7 22.9127 103.401 22.8408C102.438 22.8721 101.508 22.4909 100.844 21.7929C100.18 21.0949 99.8451 20.1466 99.9242 19.1864V12.9514H103.086V18.5068C103.086 19.6494 103.687 20.2699 104.672 20.2699C105.14 20.2664 105.583 20.0605 105.887 19.7053C106.191 19.3502 106.326 18.8807 106.258 18.4181V12.9514H109.41L109.351 22.6438ZM113.951 12.942H110.878L110.897 22.6542H114.059V16.9214C114.008 16.5182 114.134 16.1126 114.403 15.8087C114.673 15.5048 115.061 15.3324 115.468 15.3356C116.335 15.3356 116.817 15.8576 116.817 16.8426V22.6542H119.831V16.9017C119.777 16.5031 119.899 16.1005 120.166 15.7995C120.433 15.4984 120.818 15.329 121.22 15.3356C122.117 15.3356 122.579 15.8872 122.579 16.8722V22.6542H125.761V16.0645C125.826 15.1918 125.516 14.3326 124.909 13.7026C124.301 13.0726 123.454 12.7315 122.579 12.7647C121.242 12.7021 120.029 13.5469 119.624 14.8234H119.487C119.253 13.5437 118.084 12.6521 116.788 12.7647C115.506 12.7386 114.369 13.5806 114.02 14.8135H113.951V12.942Z" fill="#696871"/>
<path fill-rule="evenodd" clip-rule="evenodd" d="M30.1456 10.6458C30.1458 6.63325 27.6833 3.03196 23.9441 1.57638C20.205 0.120797 15.9557 1.10936 13.243 4.06594H0.950195V30.0109H26.905V17.8855C28.9653 16.0427 30.1438 13.41 30.1456 10.6458ZM25.1517 10.6462C25.1557 12.5673 24.0015 14.3015 22.2277 15.0395C20.4539 15.7774 18.4102 15.3737 17.0504 14.0166C15.6905 12.6596 15.2825 10.6167 16.0168 8.84142C16.751 7.06612 18.4828 5.90831 20.404 5.9083C23.0222 5.9083 25.1463 8.02792 25.1517 10.6462ZM5.94466 25.0185H21.9115V20.2609C21.4134 20.3435 20.9094 20.3863 20.4045 20.389C15.0266 20.3835 10.6682 16.0252 10.6628 10.6473C10.6671 10.1155 10.7166 9.58495 10.8106 9.06146H5.94466V25.0185Z" fill="#696871"/>
</svg>
