<svg width="116" height="24" viewBox="0 0 116 24" fill="none" xmlns="http://www.w3.org/2000/svg">
<path d="M37.3036 19.5605C36.7177 19.5923 36.1382 19.4257 35.6586 19.0877C35.2518 18.7861 35.0197 18.3034 35.0381 17.7973V8.66638C35.0284 8.58805 35.0553 8.50961 35.1111 8.4538C35.167 8.39798 35.2454 8.37102 35.3237 8.38073H36.9785C37.1657 8.38073 37.2543 8.47923 37.2543 8.66638V17.0881C37.2543 17.4624 37.4218 17.6496 37.7665 17.6496C37.9127 17.6556 38.0589 17.639 38.1999 17.6003C38.3969 17.6003 38.5053 17.6594 38.5151 17.8367L38.6629 19.068C38.6772 19.1406 38.6595 19.2159 38.6142 19.2745C38.5688 19.333 38.5004 19.3691 38.4265 19.3733C38.064 19.4931 37.6853 19.5562 37.3036 19.5605Z" fill="#696871"/>
<path fill-rule="evenodd" clip-rule="evenodd" d="M40.7024 18.5058C42.4175 19.9229 44.8972 19.9229 46.6124 18.5058V18.4959C48.0959 16.9488 48.0959 14.5073 46.6124 12.9602C44.8944 11.5509 42.4203 11.5509 40.7024 12.9602C39.1812 14.4958 39.1812 16.9702 40.7024 18.5058ZM45.076 17.2072C44.2766 17.9314 43.0584 17.9314 42.2589 17.2072C41.5368 16.377 41.5368 15.1416 42.2589 14.3113C43.0584 13.5872 44.2766 13.5872 45.076 14.3113C45.7981 15.1416 45.7981 16.377 45.076 17.2072Z" fill="#696871"/>
<path fill-rule="evenodd" clip-rule="evenodd" d="M57.1121 12.4391C57.1121 12.2519 57.0235 12.1534 56.8363 12.1534L55.2012 12.1633C55.1245 12.1568 55.0489 12.1852 54.9955 12.2406C54.942 12.296 54.9163 12.3725 54.9254 12.4489V12.6065C54.3243 12.1468 53.5838 11.9069 52.8274 11.9269C51.7896 11.8899 50.7809 12.2735 50.03 12.9907C48.5538 14.5178 48.5538 16.9402 50.03 18.4673C50.7774 19.191 51.7876 19.5788 52.8274 19.541C53.5626 19.5618 54.2837 19.3365 54.8762 18.9007V19.5213C54.8963 19.9776 54.729 20.4224 54.4132 20.7525C54.0676 21.0679 53.6097 21.2312 53.1426 21.2056C52.7592 21.2133 52.3801 21.1253 52.0394 20.9495C51.7598 20.7983 51.5458 20.5493 51.4385 20.2502C51.3843 20.1172 51.257 20.0285 51.1135 20.0236H49.4587C49.1927 20.0236 49.1927 20.1123 49.1927 20.3093C49.3313 21.1163 49.7986 21.8297 50.4831 22.2793C51.2761 22.7933 52.2079 23.0512 53.1524 23.018C54.1981 23.0641 55.2223 22.7121 56.0188 22.033C56.7454 21.3966 57.147 20.4669 57.1121 19.5016V12.4391ZM54.3643 17.2067C54.0229 17.5909 53.5286 17.8038 53.0149 17.7879C52.4956 17.8029 51.9957 17.5906 51.6457 17.2067C51.2924 16.8011 51.1059 16.2767 51.1237 15.7391C51.102 15.1961 51.2928 14.6661 51.6556 14.2616C52.0047 13.8765 52.5052 13.6641 53.0247 13.6804C53.5337 13.6636 54.0241 13.8727 54.3643 14.2517C55.0379 15.1216 55.0379 16.3369 54.3643 17.2067Z" fill="#696871"/>
<path fill-rule="evenodd" clip-rule="evenodd" d="M59.7024 18.5048C61.4204 19.9142 63.8945 19.9142 65.6124 18.5048V18.495C67.0959 16.9479 67.0959 14.5063 65.6124 12.9593C63.8931 11.5538 61.4217 11.5538 59.7024 12.9593C58.2177 14.5097 58.2177 16.9544 59.7024 18.5048ZM62.6667 17.7466C62.1405 17.7628 61.6297 17.5677 61.2483 17.2049C60.5388 16.37 60.5388 15.1439 61.2483 14.309C61.6297 13.9461 62.1405 13.751 62.6667 13.7672C63.1895 13.7537 63.6963 13.9486 64.0753 14.309C64.7848 15.1439 64.7848 16.37 64.0753 17.2049C63.6963 17.5653 63.1895 17.7602 62.6667 17.7466Z" fill="#696871"/>
<path fill-rule="evenodd" clip-rule="evenodd" d="M68.4002 10.4776C68.9387 10.949 69.743 10.949 70.2815 10.4776C70.5201 10.2524 70.6554 9.93888 70.6554 9.61081C70.6554 9.28274 70.5201 8.96918 70.2815 8.74401C69.7383 8.2852 68.9434 8.2852 68.4002 8.74401C68.1616 8.96918 68.0264 9.28274 68.0264 9.61081C68.0264 9.93888 68.1616 10.2524 68.4002 10.4776ZM68.8443 19.0853C69.3252 19.4205 69.9037 19.5868 70.4892 19.5581C70.8742 19.5545 71.2563 19.4913 71.622 19.3709C71.6959 19.3666 71.7643 19.3306 71.8096 19.272C71.8549 19.2135 71.8727 19.1382 71.8584 19.0656L71.7106 17.8343C71.7008 17.657 71.5924 17.5979 71.3954 17.5979C71.2509 17.6359 71.1015 17.6525 70.9522 17.6472C70.6173 17.6472 70.4498 17.46 70.4498 17.0857V12.4365C70.4498 12.2494 70.3612 12.1509 70.174 12.1509H68.5192C68.4409 12.1412 68.3624 12.1681 68.3066 12.2239C68.2508 12.2797 68.2238 12.3582 68.2335 12.4365V17.7949C68.2162 18.2985 68.4438 18.7794 68.8443 19.0853Z" fill="#696871"/>
<path fill-rule="evenodd" clip-rule="evenodd" d="M80.7616 12.98C80.0052 12.2587 78.9888 11.8749 77.9445 11.9162C77.0326 11.8963 76.1527 12.2525 75.5115 12.9012C75.1733 12.2404 74.4681 11.8507 73.7287 11.9162C73.3662 11.9095 73.0056 11.9696 72.6649 12.0935C72.5222 12.1349 72.4278 12.2703 72.4383 12.4185V13.5808C72.4383 13.7384 72.5467 13.8172 72.7634 13.8172H73.0884C73.2486 13.7937 73.4105 13.8473 73.525 13.9618C73.6394 14.0763 73.6931 14.2382 73.6696 14.3984V22.4754C73.6552 22.5521 73.6796 22.6308 73.7348 22.686C73.7899 22.7411 73.8687 22.7655 73.9454 22.7512H75.6002C75.7873 22.7512 75.8858 22.6626 75.8858 22.4754V18.9195C76.484 19.3514 77.2068 19.5762 77.9445 19.5598C78.9908 19.6019 80.0087 19.2139 80.7616 18.4861C82.2067 16.9352 82.2067 14.5309 80.7616 12.98ZM77.7669 17.7878C77.2535 17.7878 76.7625 17.578 76.4076 17.2071C76.0517 16.7875 75.8655 16.25 75.8855 15.7001C75.8626 15.1498 76.0492 14.6113 76.4076 14.193C76.7625 13.8221 77.2535 13.6124 77.7669 13.6124C78.2802 13.6124 78.7713 13.8221 79.1262 14.193C79.4989 14.604 79.6937 15.1459 79.6679 15.7001C79.6905 16.2538 79.4961 16.7945 79.1262 17.2071C78.7713 17.578 78.2802 17.7878 77.7669 17.7878Z" fill="#696871"/>
<path d="M86.4944 19.5605C85.6101 19.5969 84.7333 19.3854 83.9629 18.9498C83.3367 18.5727 82.9162 17.9311 82.8203 17.2064C82.8203 17.0094 82.8893 16.9109 83.106 16.9109H84.5539C84.6944 16.9164 84.8199 17.0001 84.879 17.1276C85.0858 17.6595 85.6276 17.9254 86.4944 17.9254C86.7967 17.9393 87.0978 17.8784 87.371 17.7481C87.5632 17.6614 87.6919 17.4758 87.7059 17.2655C87.7059 17.0094 87.5483 16.8321 87.2331 16.7139C86.8593 16.5895 86.4727 16.5069 86.0807 16.4676C85.6162 16.4151 85.1556 16.3328 84.7017 16.2214C84.2602 16.1215 83.8588 15.8916 83.5492 15.5614C83.1807 15.1078 83.017 14.5215 83.0973 13.9426C83.1776 13.3637 83.4947 12.8441 83.9728 12.5079C84.6827 12.0557 85.5157 11.8354 86.3565 11.8775C87.1704 11.85 87.9758 12.0514 88.6811 12.4587C89.2567 12.7847 89.6547 13.3528 89.7646 14.0051C89.7646 14.2021 89.6759 14.3006 89.4986 14.3006H88.0408C87.9152 14.3081 87.7979 14.2377 87.7453 14.1233C87.6479 13.89 87.4645 13.7031 87.2331 13.6013C86.9721 13.4647 86.6805 13.3969 86.386 13.4043C86.0973 13.3886 85.8093 13.4462 85.5488 13.5717C85.361 13.6442 85.2362 13.8236 85.2336 14.0248C85.2465 14.3013 85.4383 14.5371 85.7064 14.606C86.0846 14.7485 86.4779 14.8477 86.8785 14.9015C87.3392 14.9621 87.7962 15.0476 88.2477 15.1576C88.6891 15.2575 89.0905 15.4874 89.4001 15.8175C89.7346 16.1849 89.9084 16.6708 89.8828 17.167C89.9001 17.8596 89.5522 18.5104 88.9667 18.8809C88.2308 19.3533 87.3684 19.5904 86.4944 19.5605Z" fill="#696871"/>
<path d="M100.294 19.068C100.305 19.1387 100.287 19.2109 100.245 19.2684C100.202 19.3258 100.138 19.3637 100.067 19.3734C99.7077 19.4908 99.3325 19.5539 98.9542 19.5605C98.1929 19.6394 97.4457 19.3143 96.9842 18.7036C96.2884 19.3018 95.3888 19.6087 94.4725 19.5605C93.6122 19.6002 92.7751 19.2746 92.1676 18.6642C91.5647 18.025 91.2482 17.1679 91.2909 16.2903V12.439C91.2909 12.2518 91.3796 12.1533 91.5667 12.1533H93.2215C93.4087 12.1533 93.4973 12.2518 93.4973 12.439V15.9948C93.4793 16.4378 93.6308 16.8711 93.9209 17.2064C94.2138 17.5172 94.6269 17.686 95.0536 17.6693C95.4897 17.6884 95.9153 17.5324 96.2356 17.2359C96.5391 16.9233 96.6995 16.499 96.6789 16.0638V12.439C96.6789 12.2518 96.7675 12.1533 96.9547 12.1533H98.6292C98.8163 12.1533 98.905 12.2518 98.905 12.439V17.0783C98.905 17.4625 99.0724 17.6496 99.3975 17.6496C99.5501 17.6555 99.7028 17.6389 99.8506 17.6004C99.926 17.5792 100.007 17.5938 100.07 17.6398C100.134 17.6859 100.173 17.7585 100.176 17.8368L100.294 19.068Z" fill="#696871"/>
<path d="M115.946 19.0669C115.964 19.1383 115.949 19.2139 115.905 19.273C115.861 19.3322 115.793 19.3685 115.719 19.3723C115.353 19.4913 114.971 19.5544 114.587 19.5594C114.001 19.5896 113.422 19.4232 112.942 19.0866C112.52 18.7938 112.272 18.3096 112.282 17.7963V15.4815C112.302 15.0398 112.155 14.6067 111.868 14.27C111.588 13.9582 111.183 13.7883 110.765 13.807C110.387 13.7927 110.024 13.9525 109.78 14.2404C109.52 14.5705 109.387 14.9829 109.405 15.4027V19.0374C109.405 19.2245 109.317 19.323 109.13 19.323H107.465C107.387 19.3327 107.308 19.3058 107.252 19.2499C107.197 19.1941 107.17 19.1157 107.179 19.0374V15.4815C107.201 15.0446 107.065 14.6146 106.795 14.27C106.552 13.9768 106.191 13.8072 105.81 13.807C105.404 13.7906 105.01 13.9482 104.727 14.2404C104.445 14.5599 104.3 14.9773 104.323 15.4027V19.0374C104.333 19.1157 104.306 19.1941 104.25 19.2499C104.194 19.3058 104.116 19.3327 104.037 19.323H102.432C102.245 19.323 102.156 19.2245 102.156 19.0374V14.398C102.179 14.2378 102.126 14.0759 102.011 13.9614C101.897 13.847 101.735 13.7933 101.575 13.8168H101.25C101.033 13.8168 100.925 13.738 100.925 13.5804V12.4181C100.914 12.2699 101.008 12.1345 101.151 12.0931C101.492 11.9692 101.853 11.9091 102.215 11.9158C102.925 11.8553 103.607 12.2077 103.968 12.822C104.64 12.1853 105.547 11.857 106.47 11.9158C107.37 11.8719 108.237 12.2597 108.805 12.9599C109.465 12.2425 110.412 11.8592 111.385 11.9158C112.255 11.8751 113.101 12.2002 113.72 12.8121C114.325 13.4501 114.641 14.3081 114.596 15.186V17.0871C114.596 17.4614 114.764 17.6485 115.079 17.6485C115.232 17.6556 115.385 17.639 115.532 17.5993C115.736 17.5993 115.844 17.6781 115.857 17.8357L115.946 19.0669Z" fill="#696871"/>
<path fill-rule="evenodd" clip-rule="evenodd" d="M0.44502 10.872C1.94033 4.86188 7.3374 0.643066 13.5308 0.643066C19.7241 0.643066 25.1212 4.86188 26.6165 10.872H25.4345C23.4406 10.8427 21.4875 11.4386 19.8496 12.5761C19.755 12.6445 19.6563 12.707 19.554 12.7632H19.4161C19.3139 12.707 19.2152 12.6445 19.1206 12.5761C15.7406 10.3032 11.3209 10.3032 7.94088 12.5761C7.84635 12.6445 7.74766 12.707 7.64538 12.7632H7.50748C7.4052 12.707 7.30651 12.6445 7.21198 12.5761C5.57405 11.4386 3.62098 10.8427 1.62702 10.872H0.44502ZM23.3068 17.0489C23.9135 16.5763 24.6656 16.3291 25.4344 16.3495H27.0202V13.1877H25.4344C24.0802 13.1713 22.757 13.5928 21.6618 14.3894C20.3967 15.322 18.6717 15.322 17.4066 14.3894C15.1066 12.7883 12.0531 12.7883 9.75313 14.3894C8.48805 15.322 6.76301 15.322 5.49792 14.3894C4.3892 13.5826 3.04704 13.1606 1.67612 13.1877H0.0410156V16.3495H1.62687C2.39567 16.3291 3.1477 16.5763 3.75447 17.0489C6.05045 18.6511 9.1021 18.6511 11.3981 17.0489C12.0056 16.5778 12.7571 16.3308 13.5257 16.3495C14.2947 16.3275 15.0473 16.5749 15.6533 17.0489C17.9532 18.6499 21.0068 18.6499 23.3068 17.0489ZM25.4344 22.0017C24.6656 21.9814 23.9135 22.2285 23.3068 22.7011C21.0068 24.3021 17.9532 24.3021 15.6533 22.7011C15.0473 22.2271 14.2947 21.9797 13.5257 22.0017C12.7571 21.983 12.0056 22.23 11.3981 22.7011C9.1021 24.3033 6.05045 24.3033 3.75447 22.7011C3.1477 22.2285 2.39567 21.9814 1.62687 22.0017H0.0410156V18.8399H1.67612C3.04704 18.8128 4.3892 19.2348 5.49792 20.0416C6.76301 20.9743 8.48805 20.9743 9.75313 20.0416C12.0531 18.4405 15.1066 18.4405 17.4066 20.0416C18.6717 20.9743 20.3967 20.9743 21.6618 20.0416C22.757 19.245 24.0802 18.8235 25.4344 18.8399H27.0202V22.0017H25.4344Z" fill="#696871"/>
</svg>
