<svg width="154" height="42" viewBox="0 0 154 42" fill="none" xmlns="http://www.w3.org/2000/svg">
<path d="M151.104 11.3633V11.8598H150.527V13.7077H150.005V11.8598H149.428V11.3633H151.104Z" fill="#2E1A47"/>
<path d="M153.337 11.3633H154V13.7077H153.479V12.2642L152.881 13.7077H152.527L151.929 12.2693V13.7077H151.408V11.3633H152.081L152.709 12.8836L153.337 11.3633Z" fill="#2E1A47"/>
<path d="M38.8291 12.3157C38.8291 12.1826 38.8342 12.0598 38.8392 11.9523C38.8443 11.8448 38.8797 11.7475 38.9354 11.6707C38.9911 11.594 39.0823 11.5325 39.2088 11.4865C39.3304 11.4455 39.5076 11.4199 39.7303 11.4199H42.4999C42.6467 11.4199 42.7682 11.4455 42.8644 11.4967C42.9606 11.5479 43.0366 11.6144 43.0973 11.6912C43.153 11.768 43.1935 11.855 43.2138 11.942C43.234 12.0342 43.2441 12.1161 43.2441 12.1929L43.2492 20.859L47.4162 16.1702C47.6187 15.945 47.8566 15.8324 48.1351 15.8324H51.6894C52.1147 15.8324 52.3274 16.0013 52.3274 16.334C52.3274 16.421 52.3122 16.4927 52.2869 16.5439C52.2616 16.6002 52.2059 16.677 52.1198 16.7793L47.3605 21.8675L53.3552 29.643H53.3299C53.4311 29.7453 53.502 29.8477 53.5425 29.9552C53.583 30.0627 53.6084 30.1548 53.6084 30.2419C53.6084 30.421 53.5628 30.5439 53.4615 30.6104C53.3653 30.677 53.2185 30.7077 53.0261 30.7077H49.1123C48.9807 30.7077 48.8591 30.6565 48.7427 30.5541C48.6262 30.4517 48.4997 30.2982 48.3579 30.0985L44.5656 24.6777L43.2796 26.0239V29.8068C43.2796 29.8682 43.2695 29.9501 43.2492 30.0525C43.229 30.1548 43.1935 30.2521 43.1328 30.3494C43.0771 30.4466 42.9961 30.5285 42.8948 30.6002C42.7935 30.6718 42.6619 30.7077 42.4999 30.7077H39.5936C39.4569 30.7077 39.3354 30.6718 39.2341 30.5951C39.1329 30.5234 39.0569 30.4364 38.9962 30.3442C38.9405 30.2521 38.8949 30.1651 38.8696 30.0832C38.8443 30.0013 38.8291 29.9501 38.8291 29.9347V12.3157Z" fill="#2E1A47"/>
<path d="M55.502 16.0425C55.6033 15.9555 55.7096 15.9043 55.821 15.8787C55.9324 15.8531 56.0387 15.8429 56.14 15.8429H57.8918C58.0285 15.8429 58.15 15.8685 58.2513 15.9197C58.3526 15.9709 58.4386 16.0374 58.5045 16.1244C58.5754 16.2114 58.631 16.3087 58.6715 16.4162C58.7121 16.5237 58.7526 16.6363 58.7931 16.754L59.0361 17.7829C59.1525 17.5423 59.3399 17.2915 59.5981 17.0356C59.8563 16.7796 60.1753 16.5442 60.5601 16.3343C60.9449 16.1244 61.3854 15.9504 61.8866 15.8122C62.3879 15.674 62.9499 15.6074 63.5676 15.6074C64.4486 15.6074 65.2334 15.7763 65.927 16.1193C66.6207 16.4623 67.208 16.9281 67.689 17.5219C68.17 18.1156 68.5396 18.8067 68.7927 19.595C69.0459 20.3884 69.1725 21.233 69.1725 22.1288L69.1775 29.8019C69.1775 30.0988 69.1117 30.3241 68.9851 30.4776C68.8586 30.6312 68.656 30.708 68.3776 30.708H65.6992C65.365 30.708 65.1372 30.6517 65.0156 30.539C64.8941 30.4264 64.8283 30.2063 64.8283 29.8787L64.8232 22.2517C64.8232 21.9138 64.7473 21.5965 64.5954 21.2996C64.4435 20.9976 64.246 20.7314 63.998 20.501C63.7499 20.2707 63.4714 20.0915 63.1575 19.9584C62.8436 19.8253 62.5246 19.7588 62.2005 19.7588C61.9221 19.7588 61.6385 19.8202 61.3499 19.9482C61.0613 20.071 60.793 20.2451 60.55 20.4703C60.3069 20.6904 60.1044 20.9566 59.9373 21.2535C59.7702 21.5555 59.6791 21.878 59.6538 22.2312L59.6589 29.8429C59.6589 29.976 59.6335 30.1091 59.5829 30.2422C59.5323 30.3752 59.4563 30.4776 59.3551 30.5493C59.2538 30.6107 59.1576 30.6568 59.0715 30.6773C58.9804 30.7029 58.8791 30.7131 58.7627 30.7131H56.145C55.8109 30.7131 55.5729 30.6312 55.4261 30.4674C55.2793 30.3036 55.2033 30.0835 55.2033 29.8122L55.1982 16.7131C55.1982 16.5646 55.2286 16.4264 55.2944 16.3036C55.3603 16.1807 55.4514 16.0835 55.5679 16.0118L55.502 16.0425Z" fill="#2E1A47"/>
<path d="M86.1036 20.2341C85.7086 19.3024 85.1618 18.4885 84.4783 17.7975C83.7948 17.1065 82.9897 16.5639 82.0683 16.1697C81.1417 15.7756 80.1595 15.5811 79.1063 15.5811C78.3975 15.5811 77.714 15.6732 77.0608 15.8524C76.4077 16.0366 75.8001 16.2875 75.2381 16.6151C74.671 16.9427 74.1647 17.3419 73.704 17.8026C73.2432 18.2684 72.8483 18.7854 72.5243 19.3485C72.1952 19.9167 71.942 20.531 71.7597 21.1913C71.5775 21.8567 71.4863 22.5478 71.4863 23.2644C71.4863 23.9862 71.5775 24.6721 71.7597 25.3324C71.942 25.9928 72.2002 26.607 72.5243 27.1752C72.8534 27.7485 73.2483 28.2655 73.709 28.7262C74.1698 29.192 74.6812 29.5913 75.2432 29.9189C75.8102 30.2516 76.4178 30.5076 77.0659 30.6867C77.719 30.8659 78.4026 30.9529 79.1114 30.9529C79.8152 30.9529 80.4886 30.8659 81.1316 30.6816C81.7797 30.5024 82.3822 30.2465 82.9442 29.9138C83.5113 29.5811 84.0176 29.1818 84.4783 28.716C84.9391 28.2553 85.334 27.7332 85.658 27.165C85.9871 26.5968 86.2403 25.9825 86.4225 25.3222C86.6048 24.6619 86.696 23.9759 86.696 23.2542C86.701 22.1792 86.5036 21.1708 86.1036 20.2341ZM79.1013 27.0165C77.0558 27.0165 75.4001 25.3427 75.4001 23.2747C75.4001 21.5957 76.4938 20.1726 78.0026 19.6966C78.0583 19.6812 78.114 19.6608 78.1697 19.6454C78.2304 19.63 78.2861 19.6147 78.3469 19.6045C78.519 19.5635 78.6962 19.543 78.8836 19.5328C78.9544 19.5277 79.0203 19.5277 79.0911 19.5277C79.2177 19.5277 79.3443 19.5328 79.4709 19.5481C81.3341 19.7375 82.7923 21.3295 82.7973 23.2695C82.8024 25.3375 81.1468 27.0114 79.1013 27.0165Z" fill="#2E1A47"/>
<path d="M87.3843 16.974C87.2273 16.6515 87.202 16.3802 87.2982 16.155C87.3944 15.9297 87.6222 15.8171 87.9868 15.8171H90.9538C91.1563 15.8171 91.3285 15.8734 91.4803 15.9809C91.6322 16.0884 91.7386 16.2471 91.7993 16.4467C91.931 16.8614 92.0778 17.322 92.2348 17.8339C92.3917 18.3458 92.5588 18.8679 92.736 19.3952C92.9082 19.9275 93.0803 20.4548 93.2524 20.9769C93.4246 21.499 93.5815 21.9802 93.7233 22.4255C93.8651 22.8657 93.9917 23.2497 94.1081 23.5773C94.2195 23.9049 94.3056 24.1403 94.3562 24.2785L96.8068 16.4416C96.908 16.1908 97.0194 16.0219 97.146 15.94C97.2726 15.8529 97.4548 15.812 97.6827 15.812H100.427C100.65 15.812 100.822 15.8376 100.938 15.8939C101.055 15.9502 101.131 16.0219 101.171 16.114C101.212 16.2061 101.217 16.3136 101.196 16.4365C101.171 16.5593 101.136 16.6822 101.08 16.8153L99.8041 19.9634C99.8598 20.0965 99.9611 20.3217 100.118 20.6391C100.275 20.9564 100.447 21.3147 100.645 21.714C100.842 22.1184 101.045 22.5381 101.247 22.9784C101.45 23.4186 101.622 23.8332 101.764 24.212L104.599 16.4314C104.7 16.1805 104.801 16.0116 104.908 15.9297C105.014 15.8427 105.166 15.8018 105.379 15.8018H107.941C108.31 15.8018 108.568 15.8734 108.705 16.0116C108.842 16.1498 108.852 16.416 108.73 16.8102L103.303 30.1754C103.232 30.3136 103.126 30.4365 102.984 30.5337C102.842 30.631 102.634 30.6822 102.366 30.6822H101.151C100.852 30.6822 100.629 30.6361 100.493 30.5337C100.356 30.4365 100.24 30.3085 100.159 30.155L98.0017 24.8365L95.8853 30.1805C95.7992 30.3188 95.6979 30.4416 95.5865 30.5389C95.4701 30.6361 95.2979 30.6873 95.065 30.6873H93.6879C93.379 30.6873 93.1613 30.6412 93.0347 30.5542C92.9081 30.4672 92.812 30.3392 92.7512 30.1857L87.3843 16.974Z" fill="#2E1A47"/>
<path d="M125.358 20.214C124.998 19.2824 124.497 18.4685 123.864 17.7774C123.226 17.0864 122.467 16.5438 121.581 16.1497C120.695 15.7555 119.728 15.561 118.679 15.561C118.254 15.561 117.869 15.6019 117.52 15.6787C117.171 15.7555 116.852 15.8681 116.563 16.0012C116.274 16.1394 116.006 16.3083 115.758 16.4977C115.51 16.6923 115.282 16.9072 115.064 17.1427L115.059 12.2696C115.059 12.0188 114.973 11.8089 114.806 11.6348C114.634 11.4659 114.401 11.3789 114.113 11.3789H111.485C111.383 11.3789 111.282 11.4045 111.176 11.4455C111.07 11.4915 110.978 11.5529 110.897 11.6246C110.816 11.7014 110.751 11.7987 110.7 11.9061C110.649 12.0188 110.624 12.1365 110.624 12.2696L110.634 29.7657C110.634 30.3698 110.943 30.6667 111.561 30.6667H113.854C114.001 30.6667 114.118 30.6513 114.204 30.6103C114.29 30.5745 114.361 30.5182 114.416 30.4414C114.472 30.3698 114.528 30.2725 114.573 30.1599C114.619 30.0473 114.68 29.9193 114.745 29.7657L114.953 29.2027C115.161 29.4125 115.399 29.6224 115.667 29.8272C115.935 30.037 116.224 30.2213 116.543 30.3851C116.857 30.5489 117.196 30.682 117.555 30.7844C117.915 30.8868 118.29 30.938 118.685 30.938C119.738 30.938 120.705 30.7383 121.586 30.3391C122.467 29.9398 123.231 29.3972 123.869 28.7061C124.507 28.0151 125.003 27.2012 125.363 26.2645C125.722 25.3277 125.899 24.3193 125.899 23.2444C125.894 22.1592 125.717 21.1456 125.358 20.214ZM118.441 26.9555C117.864 26.9555 117.323 26.8224 116.836 26.5869C116.781 26.5614 116.73 26.5358 116.674 26.505C116.371 26.3464 116.097 26.1467 115.849 25.9061C115.525 25.5888 115.262 25.2202 115.064 24.7902C114.867 24.3654 114.756 23.8996 114.735 23.4082V23.2136C114.735 23.1625 114.735 23.1113 114.74 23.0601C114.745 22.9986 114.745 22.9372 114.75 22.8758C114.918 20.9665 116.502 19.4718 118.431 19.4718C120.477 19.4718 122.133 21.1456 122.133 23.2136C122.143 25.2816 120.487 26.9555 118.441 26.9555Z" fill="#2E1A47"/>
<path d="M128.219 16.7024C128.219 16.4516 128.29 16.2366 128.426 16.0574C128.563 15.8783 128.781 15.7861 129.074 15.7861H131.727C131.819 15.7861 131.92 15.8066 132.031 15.8527C132.138 15.8936 132.239 15.9602 132.335 16.0421C132.426 16.124 132.507 16.2212 132.573 16.3287C132.639 16.4362 132.669 16.5642 132.674 16.7024L132.679 29.7605C132.679 30.0574 132.598 30.2827 132.436 30.4362C132.274 30.5898 132.041 30.6666 131.743 30.6666H129.09C128.517 30.6666 128.234 30.3646 128.234 29.7657L128.219 16.7024Z" fill="#2E1A47"/>
<path d="M147.782 28.8753C147.104 29.5101 146.339 30.0015 145.489 30.3598C144.638 30.713 143.742 30.8921 142.79 30.8921C141.732 30.8921 140.729 30.6976 139.788 30.3086C138.846 29.9196 138.021 29.377 137.307 28.6859C136.598 27.9949 136.031 27.181 135.616 26.2443C135.2 25.3075 134.988 24.2889 134.988 23.1883C134.988 22.5024 135.069 21.8369 135.236 21.192C135.403 20.547 135.636 19.943 135.94 19.3799C136.243 18.8168 136.613 18.2998 137.048 17.8289C137.484 17.358 137.975 16.9536 138.512 16.6157C139.053 16.2779 139.641 16.0168 140.274 15.8274C140.907 15.638 141.575 15.5459 142.279 15.5459C142.922 15.5459 143.539 15.6329 144.142 15.8018C144.744 15.9759 145.312 16.2165 145.838 16.5287C146.365 16.841 146.851 17.2146 147.291 17.6549C147.732 18.09 148.111 18.5711 148.425 19.0881C148.744 19.6051 148.987 20.1631 149.159 20.7517C149.332 21.3404 149.423 21.9496 149.423 22.574C149.423 22.9784 149.418 23.3112 149.408 23.5671C149.397 23.823 149.337 24.0278 149.23 24.1814C149.124 24.3349 148.942 24.4373 148.694 24.4987C148.441 24.555 148.076 24.5857 147.59 24.5857L139.251 24.5909C139.327 25.0925 139.484 25.5071 139.722 25.845C139.96 26.1828 140.228 26.449 140.537 26.6486C140.846 26.8483 141.175 26.9916 141.524 27.0735C141.874 27.1605 142.198 27.2015 142.512 27.2015C142.79 27.2015 143.074 27.1708 143.367 27.1145C143.661 27.0581 143.944 26.9762 144.218 26.879C144.491 26.7817 144.744 26.6691 144.972 26.5411C145.2 26.4132 145.382 26.275 145.524 26.1368C145.646 26.0344 145.752 25.9576 145.843 25.9064C145.934 25.8552 146.025 25.8296 146.127 25.8296C146.228 25.8296 146.329 25.8655 146.436 25.9371C146.542 26.0088 146.658 26.1112 146.79 26.2391L148.02 27.6417C148.106 27.7441 148.157 27.8362 148.182 27.9181C148.208 28 148.218 28.0819 148.218 28.1689C148.218 28.3276 148.177 28.4607 148.091 28.5733C148 28.6911 147.899 28.7883 147.782 28.8753ZM142.203 19.124C141.904 19.124 141.61 19.1854 141.327 19.3082C141.043 19.4311 140.78 19.5898 140.532 19.7945C140.284 19.9993 140.061 20.2296 139.869 20.4856C139.671 20.7415 139.509 21.0026 139.388 21.2687L145.312 21.2636C145.149 20.9616 144.972 20.6801 144.785 20.419C144.598 20.1631 144.38 19.9327 144.137 19.7382C143.894 19.5437 143.615 19.3901 143.301 19.2826C142.988 19.1751 142.623 19.124 142.203 19.124Z" fill="#2E1A47"/>
<path d="M129.251 8.98828C131.16 8.98828 132.704 10.5495 132.704 12.4742C132.704 13.0731 132.229 13.5543 131.636 13.5543H129.251C128.659 13.5543 128.183 13.0731 128.183 12.4742V10.0632C128.183 9.47457 128.659 8.98828 129.251 8.98828Z" fill="#2E1A47"/>
<path d="M27.6093 9.84863C27.6093 11.9371 26.0701 13.6622 24.0803 13.9283H17.8476C15.5996 13.9283 13.7769 12.0856 13.7769 9.8128V4.11554C13.7769 1.94004 15.4477 0.158684 17.559 0.0102377C17.559 0.0102377 17.559 0.0102377 17.5641 0.0102377C17.6552 0.00511883 17.7514 0 17.8476 0C17.9236 0 17.9944 0 18.0704 0.00511883C18.0856 0.00511883 18.1008 0.00511883 18.116 0.0102377C18.202 0.0153565 18.2932 0.0255942 18.3792 0.0358318C18.3843 0.0358318 18.3843 0.0358318 18.3843 0.0358318C23.1588 0.578428 26.9562 4.38172 27.5536 9.1883C27.5789 9.34698 27.5941 9.51079 27.6042 9.67459C27.6042 9.73602 27.6093 9.79232 27.6093 9.84863Z" fill="#B1B2DD"/>
<path d="M9.74145 13.9795C11.8072 13.9795 13.5135 15.5356 13.7768 17.5473V23.8486C13.7768 26.1214 11.954 27.9641 9.70601 27.9641H4.07075C1.91892 27.9641 0.156957 26.2749 0.0101262 24.1404C0.0101262 24.1404 0.0101262 24.1404 0.0101262 24.1353C0.00506312 24.0431 0 23.9459 0 23.8486C0 23.7718 0 23.7001 0.00506312 23.6234C0.00506312 23.608 0.00506312 23.5927 0.0101262 23.5773C0.0151894 23.4903 0.0253156 23.3981 0.0354419 23.3111C0.0354419 23.306 0.0354419 23.306 0.0354419 23.306C0.572133 18.4789 4.33403 14.6398 9.08831 14.0358C9.24527 14.0102 9.40729 13.9948 9.56931 13.9846C9.63006 13.9846 9.68576 13.9795 9.74145 13.9795Z" fill="#FF6A4D"/>
<path d="M17.8727 42.0003C15.807 42.0003 14.1007 40.4441 13.8374 38.4324V32.1312C13.8374 29.8584 15.6601 28.0156 17.9082 28.0156H23.5434C25.6952 28.0156 27.4572 29.7048 27.604 31.8394C27.604 31.8394 27.604 31.8394 27.604 31.8445C27.6142 31.9418 27.6142 32.039 27.6142 32.1363C27.6142 32.2131 27.6142 32.2847 27.6091 32.3615C27.6091 32.3769 27.6091 32.3922 27.604 32.4076C27.599 32.4946 27.5889 32.5867 27.5787 32.6738C27.5787 32.6789 27.5787 32.6789 27.5787 32.6789C27.042 37.5059 23.2801 41.3451 18.5259 41.9491C18.3689 41.9747 18.2069 41.99 18.0449 42.0003C17.9892 42.0003 17.9335 42.0003 17.8727 42.0003Z" fill="#EFAC00"/>
</svg>
